<mxfile host="Electron" modified="2023-05-03T15:33:21.961Z" agent="Mozilla/5.0 (Windows NT 10.0; Win64; x64) AppleWebKit/537.36 (KHTML, like Gecko) draw.io/21.2.1 Chrome/112.0.5615.87 Electron/24.1.2 Safari/537.36" etag="-SVRFKO1ZHrdwTYLl9ln" version="21.2.1" type="device">
  <diagram name="Page-1" id="MuWw8hlP-7gh3ki9MRSE">
    <mxGraphModel dx="989" dy="589" grid="1" gridSize="10" guides="1" tooltips="1" connect="1" arrows="1" fold="1" page="1" pageScale="1" pageWidth="827" pageHeight="1169" math="0" shadow="0">
      <root>
        <mxCell id="0" />
        <mxCell id="1" parent="0" />
        <mxCell id="n9vFjWYDE5SBtBu7MkNS-1" value="Admin&amp;nbsp;" style="shape=umlActor;verticalLabelPosition=bottom;verticalAlign=top;html=1;points=[[0,0.3333333333333333,0,0,0],[0,1,0,0,0],[0.25,0.1,0,0,0],[0.5,0,0,0,0],[0.5,0.5,0,0,0],[0.55,1,0,0,31],[0.75,0.1,0,0,0],[1,0.3333333333333333,0,0,0],[1,1,0,0,0]];" parent="1" vertex="1">
          <mxGeometry x="31.180000000000014" y="50" width="30" height="60" as="geometry" />
        </mxCell>
        <mxCell id="n9vFjWYDE5SBtBu7MkNS-2" value="" style="rounded=0;orthogonalLoop=1;jettySize=auto;html=1;dashed=1;endArrow=none;endFill=0;exitX=0.482;exitY=1.002;exitDx=0;exitDy=0;exitPerimeter=0;" parent="1" source="n9vFjWYDE5SBtBu7MkNS-9" edge="1">
          <mxGeometry relative="1" as="geometry">
            <mxPoint x="46" y="120" as="sourcePoint" />
            <mxPoint x="46" y="1120" as="targetPoint" />
          </mxGeometry>
        </mxCell>
        <mxCell id="n9vFjWYDE5SBtBu7MkNS-3" value=":Product" style="shape=umlLifeline;perimeter=lifelinePerimeter;whiteSpace=wrap;html=1;container=1;collapsible=0;recursiveResize=0;outlineConnect=0;rounded=1;shadow=0;comic=0;labelBackgroundColor=none;strokeWidth=1;fontFamily=Verdana;fontSize=13;align=center;" parent="1" vertex="1">
          <mxGeometry x="440" y="50" width="100" height="1078" as="geometry" />
        </mxCell>
        <mxCell id="_FD4OdGNVvCiFkxSy3Ma-17" value="" style="html=1;points=[[0,0,0,0,0]];perimeter=orthogonalPerimeter;rounded=0;shadow=0;comic=0;labelBackgroundColor=none;strokeWidth=1;fontFamily=Verdana;fontSize=12;align=center;" parent="n9vFjWYDE5SBtBu7MkNS-3" vertex="1">
          <mxGeometry x="45" y="630" width="10" height="131" as="geometry" />
        </mxCell>
        <mxCell id="n9vFjWYDE5SBtBu7MkNS-8" value="DATABASE" style="shape=umlLifeline;perimeter=lifelinePerimeter;whiteSpace=wrap;html=1;container=0;collapsible=0;recursiveResize=0;outlineConnect=0;rounded=1;shadow=0;comic=0;labelBackgroundColor=none;strokeWidth=1;fontFamily=Verdana;fontSize=13;align=center;" parent="1" vertex="1">
          <mxGeometry x="710" y="50" width="100" height="1078" as="geometry" />
        </mxCell>
        <mxCell id="xyhd7Tv-3I_tJ8hBVRdf-2" value="" style="html=1;points=[];perimeter=orthogonalPerimeter;outlineConnect=0;targetShapes=umlLifeline;portConstraint=eastwest;newEdgeStyle={&quot;edgeStyle&quot;:&quot;elbowEdgeStyle&quot;,&quot;elbow&quot;:&quot;vertical&quot;,&quot;curved&quot;:0,&quot;rounded&quot;:0};" vertex="1" parent="n9vFjWYDE5SBtBu7MkNS-8">
          <mxGeometry x="45" y="214" width="10" height="96" as="geometry" />
        </mxCell>
        <mxCell id="xyhd7Tv-3I_tJ8hBVRdf-5" value="" style="html=1;points=[];perimeter=orthogonalPerimeter;outlineConnect=0;targetShapes=umlLifeline;portConstraint=eastwest;newEdgeStyle={&quot;edgeStyle&quot;:&quot;elbowEdgeStyle&quot;,&quot;elbow&quot;:&quot;vertical&quot;,&quot;curved&quot;:0,&quot;rounded&quot;:0};" vertex="1" parent="n9vFjWYDE5SBtBu7MkNS-8">
          <mxGeometry x="46.17999999999995" y="438" width="10" height="96" as="geometry" />
        </mxCell>
        <mxCell id="xyhd7Tv-3I_tJ8hBVRdf-6" value="&lt;font style=&quot;font-size: 12px;&quot;&gt;genSalesReport()&lt;/font&gt;" style="html=1;verticalAlign=bottom;endArrow=block;edgeStyle=elbowEdgeStyle;elbow=vertical;curved=0;rounded=0;exitX=1.221;exitY=0.145;exitDx=0;exitDy=0;exitPerimeter=0;" edge="1" parent="n9vFjWYDE5SBtBu7MkNS-8" source="_FD4OdGNVvCiFkxSy3Ma-16">
          <mxGeometry x="0.716" y="1" relative="1" as="geometry">
            <mxPoint x="-488.82" y="438" as="sourcePoint" />
            <mxPoint x="46.17999999999972" y="438.37931034482756" as="targetPoint" />
            <mxPoint as="offset" />
          </mxGeometry>
        </mxCell>
        <mxCell id="xyhd7Tv-3I_tJ8hBVRdf-7" value="" style="html=1;verticalAlign=bottom;endArrow=open;dashed=1;endSize=8;edgeStyle=elbowEdgeStyle;elbow=vertical;curved=0;rounded=0;entryX=1.29;entryY=0.86;entryDx=0;entryDy=0;entryPerimeter=0;" edge="1" parent="n9vFjWYDE5SBtBu7MkNS-8" target="_FD4OdGNVvCiFkxSy3Ma-16">
          <mxGeometry x="0.7375" y="1" relative="1" as="geometry">
            <mxPoint x="-488.82" y="533" as="targetPoint" />
            <mxPoint x="46.17999999999972" y="533.2068965517242" as="sourcePoint" />
            <mxPoint as="offset" />
          </mxGeometry>
        </mxCell>
        <mxCell id="kZ2RcLdzIM8h738nA8hj-1" value=":Purchase" style="shape=umlLifeline;perimeter=lifelinePerimeter;whiteSpace=wrap;html=1;container=1;collapsible=0;recursiveResize=0;outlineConnect=0;rounded=1;shadow=0;comic=0;labelBackgroundColor=none;strokeWidth=1;fontFamily=Verdana;fontSize=13;align=center;" parent="1" vertex="1">
          <mxGeometry x="166.18" y="50" width="100" height="1078" as="geometry" />
        </mxCell>
        <mxCell id="kZ2RcLdzIM8h738nA8hj-2" value="" style="html=1;points=[[0,0,0,0,0]];perimeter=orthogonalPerimeter;rounded=0;shadow=0;comic=0;labelBackgroundColor=none;strokeWidth=1;fontFamily=Verdana;fontSize=12;align=center;" parent="kZ2RcLdzIM8h738nA8hj-1" vertex="1">
          <mxGeometry x="45" y="199" width="10" height="131" as="geometry" />
        </mxCell>
        <mxCell id="_FD4OdGNVvCiFkxSy3Ma-4" value="&lt;font style=&quot;font-size: 12px;&quot;&gt;genSalesReport()&lt;/font&gt;" style="html=1;verticalAlign=bottom;endArrow=block;elbow=vertical;rounded=0;entryX=0;entryY=0;entryDx=0;entryDy=0;entryPerimeter=0;" parent="kZ2RcLdzIM8h738nA8hj-1" edge="1" target="_FD4OdGNVvCiFkxSy3Ma-16">
          <mxGeometry x="0.5726" y="2" width="80" relative="1" as="geometry">
            <mxPoint x="-115" y="420" as="sourcePoint" />
            <mxPoint x="184" y="421" as="targetPoint" />
            <mxPoint as="offset" />
          </mxGeometry>
        </mxCell>
        <mxCell id="_FD4OdGNVvCiFkxSy3Ma-10" value="&lt;font style=&quot;font-size: 12px;&quot;&gt;genProductReport()&lt;/font&gt;" style="html=1;verticalAlign=bottom;endArrow=block;elbow=vertical;rounded=0;exitX=0.882;exitY=0.539;exitDx=0;exitDy=0;exitPerimeter=0;" parent="kZ2RcLdzIM8h738nA8hj-1" edge="1" source="n9vFjWYDE5SBtBu7MkNS-9">
          <mxGeometry x="0.7078" width="80" relative="1" as="geometry">
            <mxPoint x="-108" y="630" as="sourcePoint" />
            <mxPoint x="319.82" y="631" as="targetPoint" />
            <mxPoint as="offset" />
          </mxGeometry>
        </mxCell>
        <mxCell id="_FD4OdGNVvCiFkxSy3Ma-19" value="&lt;font style=&quot;font-size: 12px;&quot;&gt;genStockReport()&lt;/font&gt;" style="html=1;verticalAlign=bottom;endArrow=block;elbow=vertical;rounded=0;entryX=-0.228;entryY=0.044;entryDx=0;entryDy=0;entryPerimeter=0;" parent="kZ2RcLdzIM8h738nA8hj-1" edge="1" target="_FD4OdGNVvCiFkxSy3Ma-18">
          <mxGeometry x="0.7581" width="80" relative="1" as="geometry">
            <mxPoint x="-113" y="844" as="sourcePoint" />
            <mxPoint x="453.82" y="844" as="targetPoint" />
            <mxPoint as="offset" />
          </mxGeometry>
        </mxCell>
        <mxCell id="kZ2RcLdzIM8h738nA8hj-3" value=":Sales" style="shape=umlLifeline;perimeter=lifelinePerimeter;whiteSpace=wrap;html=1;container=1;collapsible=0;recursiveResize=0;outlineConnect=0;rounded=1;shadow=0;comic=0;labelBackgroundColor=none;strokeWidth=1;fontFamily=Verdana;fontSize=13;align=center;" parent="1" vertex="1">
          <mxGeometry x="300" y="50" width="100" height="1078" as="geometry" />
        </mxCell>
        <mxCell id="_FD4OdGNVvCiFkxSy3Ma-16" value="" style="html=1;points=[[0,0,0,0,0]];perimeter=orthogonalPerimeter;rounded=0;shadow=0;comic=0;labelBackgroundColor=none;strokeWidth=1;fontFamily=Verdana;fontSize=12;align=center;" parent="kZ2RcLdzIM8h738nA8hj-3" vertex="1">
          <mxGeometry x="45" y="420" width="10" height="131" as="geometry" />
        </mxCell>
        <mxCell id="_FD4OdGNVvCiFkxSy3Ma-14" value="" style="html=1;verticalAlign=bottom;endArrow=open;dashed=1;endSize=8;elbow=vertical;rounded=0;" parent="kZ2RcLdzIM8h738nA8hj-3" edge="1">
          <mxGeometry x="-0.0021" relative="1" as="geometry">
            <mxPoint x="193.5" y="760" as="sourcePoint" />
            <mxPoint x="-250" y="760" as="targetPoint" />
            <mxPoint as="offset" />
          </mxGeometry>
        </mxCell>
        <mxCell id="_FD4OdGNVvCiFkxSy3Ma-15" value="&lt;font style=&quot;font-size: 12px;&quot;&gt;Report Generated&lt;/font&gt;" style="edgeLabel;html=1;align=center;verticalAlign=middle;resizable=0;points=[];" parent="_FD4OdGNVvCiFkxSy3Ma-14" vertex="1" connectable="0">
          <mxGeometry x="0.0311" y="2" relative="1" as="geometry">
            <mxPoint x="-134" y="-11" as="offset" />
          </mxGeometry>
        </mxCell>
        <mxCell id="kZ2RcLdzIM8h738nA8hj-9" value=":Stock" style="shape=umlLifeline;perimeter=lifelinePerimeter;whiteSpace=wrap;html=1;container=1;collapsible=0;recursiveResize=0;outlineConnect=0;rounded=1;shadow=0;comic=0;labelBackgroundColor=none;strokeWidth=1;fontFamily=Verdana;fontSize=13;align=center;" parent="1" vertex="1">
          <mxGeometry x="580.0000000000001" y="50" width="100" height="1078" as="geometry" />
        </mxCell>
        <mxCell id="_FD4OdGNVvCiFkxSy3Ma-18" value="" style="html=1;points=[[0,0,0,0,0]];perimeter=orthogonalPerimeter;rounded=0;shadow=0;comic=0;labelBackgroundColor=none;strokeWidth=1;fontFamily=Verdana;fontSize=12;align=center;" parent="kZ2RcLdzIM8h738nA8hj-9" vertex="1">
          <mxGeometry x="45" y="840" width="10" height="131" as="geometry" />
        </mxCell>
        <mxCell id="kZ2RcLdzIM8h738nA8hj-20" value="" style="html=1;verticalAlign=bottom;endArrow=open;dashed=1;endSize=8;edgeStyle=elbowEdgeStyle;elbow=vertical;curved=0;rounded=0;" parent="1" edge="1">
          <mxGeometry x="-0.0021" relative="1" as="geometry">
            <mxPoint x="208.68" y="376.3103448275863" as="sourcePoint" />
            <mxPoint x="54.18000000000001" y="376" as="targetPoint" />
            <mxPoint as="offset" />
          </mxGeometry>
        </mxCell>
        <mxCell id="_FD4OdGNVvCiFkxSy3Ma-1" value="&lt;font style=&quot;font-size: 12px;&quot;&gt;Report Generated&lt;/font&gt;" style="edgeLabel;html=1;align=center;verticalAlign=middle;resizable=0;points=[];" parent="kZ2RcLdzIM8h738nA8hj-20" vertex="1" connectable="0">
          <mxGeometry x="0.0311" y="2" relative="1" as="geometry">
            <mxPoint x="6" y="-11" as="offset" />
          </mxGeometry>
        </mxCell>
        <mxCell id="_FD4OdGNVvCiFkxSy3Ma-7" value="" style="html=1;verticalAlign=bottom;endArrow=open;dashed=1;endSize=8;elbow=vertical;rounded=0;" parent="1" edge="1">
          <mxGeometry x="-0.0021" relative="1" as="geometry">
            <mxPoint x="340" y="596" as="sourcePoint" />
            <mxPoint x="51.18000000000001" y="596" as="targetPoint" />
            <mxPoint as="offset" />
          </mxGeometry>
        </mxCell>
        <mxCell id="_FD4OdGNVvCiFkxSy3Ma-8" value="&lt;font style=&quot;font-size: 12px;&quot;&gt;Report Generated&lt;/font&gt;" style="edgeLabel;html=1;align=center;verticalAlign=middle;resizable=0;points=[];" parent="_FD4OdGNVvCiFkxSy3Ma-7" vertex="1" connectable="0">
          <mxGeometry x="0.0311" y="2" relative="1" as="geometry">
            <mxPoint x="-62" y="-11" as="offset" />
          </mxGeometry>
        </mxCell>
        <mxCell id="_FD4OdGNVvCiFkxSy3Ma-20" value="" style="html=1;verticalAlign=bottom;endArrow=open;dashed=1;endSize=8;elbow=vertical;rounded=0;exitX=0.5;exitY=0.992;exitDx=0;exitDy=0;exitPerimeter=0;" parent="1" source="_FD4OdGNVvCiFkxSy3Ma-18" edge="1">
          <mxGeometry x="-0.0021" relative="1" as="geometry">
            <mxPoint x="626.1800000000001" y="1016" as="sourcePoint" />
            <mxPoint x="52.18000000000001" y="1015" as="targetPoint" />
            <mxPoint as="offset" />
          </mxGeometry>
        </mxCell>
        <mxCell id="_FD4OdGNVvCiFkxSy3Ma-21" value="&lt;font style=&quot;font-size: 12px;&quot;&gt;Report Generated&lt;/font&gt;" style="edgeLabel;html=1;align=center;verticalAlign=middle;resizable=0;points=[];" parent="_FD4OdGNVvCiFkxSy3Ma-20" vertex="1" connectable="0">
          <mxGeometry x="0.0311" y="2" relative="1" as="geometry">
            <mxPoint x="-191" y="-11" as="offset" />
          </mxGeometry>
        </mxCell>
        <mxCell id="xyhd7Tv-3I_tJ8hBVRdf-1" value="" style="rounded=0;orthogonalLoop=1;jettySize=auto;html=1;dashed=1;endArrow=none;endFill=0;exitX=0.55;exitY=1;exitDx=0;exitDy=31;exitPerimeter=0;" edge="1" parent="1" source="n9vFjWYDE5SBtBu7MkNS-1" target="n9vFjWYDE5SBtBu7MkNS-9">
          <mxGeometry relative="1" as="geometry">
            <mxPoint x="48" y="141" as="sourcePoint" />
            <mxPoint x="50" y="1130" as="targetPoint" />
          </mxGeometry>
        </mxCell>
        <mxCell id="n9vFjWYDE5SBtBu7MkNS-9" value="" style="html=1;points=[[0,0,0,0,0]];perimeter=orthogonalPerimeter;rounded=0;shadow=0;comic=0;labelBackgroundColor=none;strokeWidth=1;fontFamily=Verdana;fontSize=12;align=center;" parent="1" vertex="1">
          <mxGeometry x="41.18000000000001" y="200" width="10" height="890" as="geometry" />
        </mxCell>
        <mxCell id="kZ2RcLdzIM8h738nA8hj-5" value="&lt;font style=&quot;font-size: 12px;&quot;&gt;genPurchaseReport()&lt;/font&gt;" style="html=1;verticalAlign=bottom;endArrow=block;elbow=vertical;rounded=0;entryX=0;entryY=0;entryDx=0;entryDy=0;entryPerimeter=0;" parent="1" target="kZ2RcLdzIM8h738nA8hj-2" edge="1">
          <mxGeometry width="80" relative="1" as="geometry">
            <mxPoint x="51" y="250" as="sourcePoint" />
            <mxPoint x="196.18" y="246" as="targetPoint" />
          </mxGeometry>
        </mxCell>
        <mxCell id="xyhd7Tv-3I_tJ8hBVRdf-3" value="&lt;font style=&quot;font-size: 12px;&quot;&gt;genPurchaseReport()&lt;/font&gt;" style="html=1;verticalAlign=bottom;endArrow=block;edgeStyle=elbowEdgeStyle;elbow=vertical;curved=0;rounded=0;" edge="1" parent="1">
          <mxGeometry x="0.7935" relative="1" as="geometry">
            <mxPoint x="220" y="264" as="sourcePoint" />
            <mxPoint x="754.9999999999998" y="264.37931034482756" as="targetPoint" />
            <mxPoint as="offset" />
          </mxGeometry>
        </mxCell>
        <mxCell id="xyhd7Tv-3I_tJ8hBVRdf-4" value="" style="html=1;verticalAlign=bottom;endArrow=open;dashed=1;endSize=8;edgeStyle=elbowEdgeStyle;elbow=vertical;curved=0;rounded=0;" edge="1" parent="1">
          <mxGeometry x="0.7375" y="1" relative="1" as="geometry">
            <mxPoint x="220" y="359" as="targetPoint" />
            <mxPoint x="754.9999999999998" y="359.2068965517242" as="sourcePoint" />
            <mxPoint as="offset" />
          </mxGeometry>
        </mxCell>
        <mxCell id="xyhd7Tv-3I_tJ8hBVRdf-8" value="" style="html=1;points=[];perimeter=orthogonalPerimeter;outlineConnect=0;targetShapes=umlLifeline;portConstraint=eastwest;newEdgeStyle={&quot;edgeStyle&quot;:&quot;elbowEdgeStyle&quot;,&quot;elbow&quot;:&quot;vertical&quot;,&quot;curved&quot;:0,&quot;rounded&quot;:0};" vertex="1" parent="1">
          <mxGeometry x="755.18" y="699" width="10" height="96" as="geometry" />
        </mxCell>
        <mxCell id="xyhd7Tv-3I_tJ8hBVRdf-9" value="&lt;font style=&quot;font-size: 12px;&quot;&gt;genProductReport()&lt;/font&gt;" style="html=1;verticalAlign=bottom;endArrow=block;elbow=vertical;rounded=0;exitX=1.083;exitY=0.152;exitDx=0;exitDy=0;exitPerimeter=0;" edge="1" parent="1" source="_FD4OdGNVvCiFkxSy3Ma-17">
          <mxGeometry x="0.4974" relative="1" as="geometry">
            <mxPoint x="356" y="700" as="sourcePoint" />
            <mxPoint x="755.1799999999997" y="699.3793103448276" as="targetPoint" />
            <mxPoint as="offset" />
          </mxGeometry>
        </mxCell>
        <mxCell id="xyhd7Tv-3I_tJ8hBVRdf-10" value="" style="html=1;verticalAlign=bottom;endArrow=open;dashed=1;endSize=8;edgeStyle=elbowEdgeStyle;elbow=vertical;curved=0;rounded=0;entryX=0.945;entryY=0.858;entryDx=0;entryDy=0;entryPerimeter=0;" edge="1" parent="1" target="_FD4OdGNVvCiFkxSy3Ma-17">
          <mxGeometry x="0.7375" y="1" relative="1" as="geometry">
            <mxPoint x="500" y="793" as="targetPoint" />
            <mxPoint x="755.1799999999997" y="794.2068965517242" as="sourcePoint" />
            <mxPoint as="offset" />
          </mxGeometry>
        </mxCell>
        <mxCell id="xyhd7Tv-3I_tJ8hBVRdf-15" value="" style="html=1;points=[];perimeter=orthogonalPerimeter;outlineConnect=0;targetShapes=umlLifeline;portConstraint=eastwest;newEdgeStyle={&quot;edgeStyle&quot;:&quot;elbowEdgeStyle&quot;,&quot;elbow&quot;:&quot;vertical&quot;,&quot;curved&quot;:0,&quot;rounded&quot;:0};" vertex="1" parent="1">
          <mxGeometry x="755.18" y="907" width="10" height="96" as="geometry" />
        </mxCell>
        <mxCell id="xyhd7Tv-3I_tJ8hBVRdf-16" value="genStockReport()" style="html=1;verticalAlign=bottom;endArrow=block;elbow=vertical;rounded=0;" edge="1" parent="1">
          <mxGeometry x="0.0579" relative="1" as="geometry">
            <mxPoint x="636" y="907" as="sourcePoint" />
            <mxPoint x="757" y="908" as="targetPoint" />
            <mxPoint as="offset" />
          </mxGeometry>
        </mxCell>
        <mxCell id="xyhd7Tv-3I_tJ8hBVRdf-17" value="" style="html=1;verticalAlign=bottom;endArrow=open;dashed=1;endSize=8;elbow=vertical;rounded=0;exitX=0.482;exitY=0.99;exitDx=0;exitDy=0;exitPerimeter=0;" edge="1" parent="1" source="xyhd7Tv-3I_tJ8hBVRdf-15">
          <mxGeometry x="0.7375" y="1" relative="1" as="geometry">
            <mxPoint x="635" y="1002" as="targetPoint" />
            <mxPoint x="750.1799999999997" y="1002.2068965517242" as="sourcePoint" />
            <mxPoint as="offset" />
          </mxGeometry>
        </mxCell>
      </root>
    </mxGraphModel>
  </diagram>
</mxfile>
